<svg width="180" height="44" viewBox="0 0 180 44" fill="none" xmlns="http://www.w3.org/2000/svg">
<path d="M51.3818 23.5242V19.6416C51.3818 15.0357 54.4312 12.0571 59.0148 12.0571C60.9397 12.0571 62.5025 12.5995 63.5888 13.6178V6.68994C63.5888 5.60509 64.2749 4.9104 65.3708 4.9104H66.1713C67.2576 4.9104 67.9532 5.59557 67.9532 6.68994V25.8747L69.5827 27.502C70.2689 28.1872 70.3451 29.0627 69.659 29.7479L68.9348 30.4711C68.2486 31.1563 67.372 31.0897 66.6859 30.395L64.8372 28.5488C63.7127 30.2142 61.7878 31.0897 59.1673 31.0897C54.4789 31.0897 51.3914 28.1111 51.3914 23.5052L51.3818 23.5242ZM63.5793 23.9239V19.2419C63.5793 16.8438 62.2357 15.502 59.6914 15.502C57.147 15.502 55.8034 16.8438 55.8034 19.2419V23.9239C55.8034 26.322 57.147 27.6638 59.6914 27.6638C62.2357 27.6638 63.5793 26.322 63.5793 23.9239Z" fill="black"/>
<path d="M72.7751 24.1047V19.28C72.7751 14.598 75.6053 12.0667 80.8749 12.0667C86.1446 12.0667 88.8319 14.4267 88.8319 18.9945V21.602C88.8319 22.6202 88.3554 23.1246 87.3453 23.1246H77.1014V24.5425C77.1014 26.8264 78.3402 27.8066 81.2085 27.8066C83.3526 27.8066 84.4389 27.188 84.4389 25.9604V25.8462C84.4389 25.4465 84.5818 25.3038 85.0202 25.3038H87.9933C88.3554 25.3038 88.5746 25.5227 88.5746 25.8843V26.027C88.5746 29.4053 86.0684 31.1087 81.1608 31.1087C75.6338 31.1087 72.7655 28.7106 72.7655 24.1047H72.7751ZM77.1014 18.5567V19.8985H84.6581V18.5567C84.6581 16.4156 83.3144 15.2927 80.8464 15.2927C78.3783 15.2927 77.1014 16.4156 77.1014 18.5567Z" fill="black"/>
<path d="M98.0276 29.4433V17.2911L96.3981 15.6638C95.712 14.9786 95.6358 14.1031 96.3219 13.4179L97.0461 12.6947C97.7322 12.0095 98.6089 12.0761 99.295 12.7708L101.363 14.8359C102.268 13.2371 103.688 12.3331 105.508 12.3331H105.946C107.614 12.3331 108.491 13.0182 108.491 14.2934V14.655C108.491 15.778 107.69 16.4727 106.461 16.4727H105.956C103.593 16.4727 102.392 17.7383 102.392 20.2792V29.4528C102.392 30.2141 101.887 30.7185 101.115 30.7185H99.3045C98.5422 30.7185 98.0276 30.2141 98.0276 29.4528V29.4433Z" fill="black"/>
<path d="M110.054 23.6765V19.5084C110.054 14.7217 113.065 12.0762 118.449 12.0762C123.833 12.0762 126.873 14.7217 126.873 19.5084V23.6765C126.873 28.4632 123.862 31.1087 118.487 31.1087C113.112 31.1087 110.063 28.4632 110.063 23.6765H110.054ZM122.442 24.1047V19.0611C122.442 16.7391 121.06 15.502 118.449 15.502C115.838 15.502 114.485 16.7391 114.485 19.0611V24.1047C114.485 26.4267 115.866 27.6638 118.477 27.6638C121.088 27.6638 122.432 26.4267 122.432 24.1047H122.442Z" fill="black"/>
<path d="M131.704 29.4434V17.2911L130.075 15.6638C129.388 14.9786 129.312 14.1031 129.998 13.418L130.723 12.6947C131.409 12.0096 132.285 12.0762 132.971 12.7709L134.753 14.617C135.811 12.9517 137.622 12.0762 139.985 12.0762C142.596 12.0762 144.702 13.0183 145.941 14.7598C147.027 13.0183 148.885 12.0762 151.353 12.0762C155.746 12.0762 158.653 14.6551 158.653 19.261V29.4529C158.653 30.2142 158.148 30.7185 157.385 30.7185H155.565C154.803 30.7185 154.298 30.2142 154.298 29.4529V19.261C154.298 16.9009 153.097 15.6353 150.848 15.6353C148.599 15.6353 147.361 16.8724 147.361 19.261V29.4529C147.361 30.2142 146.856 30.7185 146.093 30.7185H144.273C143.511 30.7185 143.006 30.2142 143.006 29.4529V19.261C143.006 16.9009 141.805 15.6353 139.556 15.6353C137.307 15.6353 136.068 16.8724 136.068 19.261V29.4529C136.068 30.2142 135.563 30.7185 134.792 30.7185H132.981C132.219 30.7185 131.704 30.2142 131.704 29.4529V29.4434Z" fill="black"/>
<path d="M162.264 25.7035V25.4085C162.264 21.6686 164.628 19.9271 169.64 19.9271C170.908 19.9271 172.223 20.0698 173.49 20.3648V17.7193C173.49 16.1586 172.47 15.4354 170.26 15.4354C168.049 15.4354 167.172 15.9778 167.172 17.2816V17.4624C167.172 17.9667 166.915 18.2237 166.41 18.2237H163.799C163.294 18.2237 162.998 17.9287 162.998 17.4243V17.2435C162.998 13.9414 165.609 12.0571 170.221 12.0571C175.234 12.0571 177.816 14.0555 177.816 18.0048V25.8748L179.446 27.502C180.132 28.1872 180.208 29.0627 179.522 29.7479L178.798 30.4711C178.112 31.1563 177.235 31.0897 176.549 30.395L174.729 28.5869C173.528 30.1476 171.536 31.0897 169.135 31.0897C164.809 31.0897 162.274 29.0913 162.274 25.6844L162.264 25.7035ZM169.85 27.8066C171.956 27.8066 173.48 26.6075 173.48 24.9422V23.2768C172.318 22.9533 171.193 22.801 169.993 22.801C167.668 22.801 166.505 23.6004 166.505 25.1991V25.4846C166.505 27.0453 167.629 27.8066 169.85 27.8066Z" fill="black"/>
<path d="M39.5941 0H4.39299C1.96303 0 0 1.96035 0 4.387V39.5401C0 41.9668 1.96303 43.9271 4.39299 43.9271H39.5941C42.0241 43.9271 43.9871 41.9668 43.9871 39.5401V4.387C43.9871 1.96035 42.0241 0 39.5941 0ZM32.8283 31.2229C34.2959 32.146 34.7818 33.8589 33.7432 35.4386C32.7616 36.9612 31.0559 37.3323 29.5217 36.3522L12.2642 25.4751C10.5489 24.4378 9.69127 23.5242 9.69127 21.9921V21.935C9.69127 20.3458 10.5489 19.4893 12.2642 18.452L29.5217 7.58447C31.0464 6.60429 32.7616 6.97543 33.7432 8.49803C34.7818 10.0872 34.2959 11.8002 32.8283 12.7137L17.7149 21.9445L32.8283 31.2229Z" fill="black"/>
<path d="M50.8196 41.1387V40.7961C50.8196 40.6438 50.8958 40.5677 51.0388 40.5677H51.5534C51.6772 40.5677 51.763 40.6438 51.763 40.7866V41.1291C51.763 42.0617 52.3348 42.4519 53.5545 42.4519C54.7743 42.4519 55.346 42.0427 55.346 41.072V40.8437C55.346 39.9967 54.9458 39.8159 54.193 39.6827L52.7445 39.4162C51.5438 39.1973 50.8958 38.8262 50.8958 37.4463V37.2084C50.8958 35.762 51.8297 34.9911 53.5736 34.9911C55.3174 34.9911 56.2227 35.6573 56.2227 37.0657V37.3417C56.2227 37.4749 56.156 37.5701 56.0131 37.5701H55.4985C55.3651 37.5701 55.2793 37.4749 55.2793 37.3417V37.0657C55.2793 36.1521 54.7457 35.762 53.564 35.762C52.3824 35.762 51.8583 36.1617 51.8583 37.1323V37.3607C51.8583 38.1981 52.249 38.3789 52.9923 38.5122L54.4598 38.7786C55.651 38.9975 56.3085 39.3877 56.3085 40.7675V41.0054C56.3085 42.4709 55.3365 43.2322 53.5545 43.2322C51.7725 43.2322 50.8196 42.5661 50.8196 41.1482V41.1387Z" fill="black"/>
<path d="M57.2805 42.8422C57.2805 42.7851 57.2995 42.709 57.3472 42.5663L59.6437 35.5242C59.7581 35.1816 59.8915 35.0674 60.1964 35.0674H60.7205C61.0159 35.0674 61.1589 35.1816 61.2732 35.5242L63.5698 42.5663C63.6174 42.6995 63.6365 42.7851 63.6365 42.8422C63.6365 43.004 63.5317 43.1087 63.3315 43.1087H63.0266C62.7979 43.1087 62.7312 43.0421 62.6454 42.7851L61.9689 40.644H58.929L58.2524 42.7851C58.1762 43.0326 58.0904 43.1087 57.8617 43.1087H57.5854C57.3757 43.1087 57.2805 43.004 57.2805 42.8422ZM61.702 39.8161L60.4442 35.8478L59.1863 39.8161H61.702Z" fill="black"/>
<path d="M65.0373 42.6424V35.391C65.0373 35.2197 65.1516 35.1055 65.3232 35.1055H65.7234C65.8949 35.1055 66.0093 35.2197 66.0093 35.391V42.2808H69.4589C69.6304 42.2808 69.7352 42.3855 69.7352 42.5568V42.8232C69.7352 42.9945 69.6304 43.0992 69.4589 43.0992H65.4947C65.2088 43.0992 65.0373 42.9279 65.0373 42.6424Z" fill="black"/>
<path d="M71.8793 42.69L69.5828 35.6384C69.5351 35.5147 69.5161 35.4291 69.5161 35.372C69.5161 35.2102 69.6209 35.1055 69.821 35.1055H70.1259C70.3546 35.1055 70.4309 35.1721 70.5166 35.4291L72.6607 42.2427L74.8239 35.4291C74.9001 35.1817 74.9763 35.1055 75.205 35.1055H75.4909C75.7006 35.1055 75.7863 35.2102 75.7863 35.372C75.7863 35.4291 75.7768 35.5052 75.7291 35.6384L73.4326 42.69C73.3182 43.0326 73.1848 43.1468 72.8704 43.1468H72.4225C72.1271 43.1468 71.9841 43.0326 71.8698 42.69H71.8793Z" fill="black"/>
<path d="M76.0436 42.8422C76.0436 42.7851 76.0626 42.709 76.1103 42.5663L78.4068 35.5242C78.5212 35.1816 78.6546 35.0674 78.9595 35.0674H79.4836C79.7791 35.0674 79.922 35.1816 80.0363 35.5242L82.3329 42.5663C82.3805 42.6995 82.3996 42.7851 82.3996 42.8422C82.3996 43.004 82.2948 43.1087 82.0947 43.1087H81.7897C81.561 43.1087 81.4943 43.0421 81.4086 42.7851L80.732 40.644H77.6921L77.0156 42.7851C76.9393 43.0326 76.8536 43.1087 76.6249 43.1087H76.3485C76.1389 43.1087 76.0436 43.004 76.0436 42.8422ZM80.4652 39.8161L79.2073 35.8478L77.9494 39.8161H80.4652Z" fill="black"/>
<path d="M84.7152 42.8137V35.9239H82.4854C82.3043 35.9239 82.1995 35.8192 82.1995 35.648V35.3815C82.1995 35.2102 82.3043 35.1055 82.4854 35.1055H87.9266C88.1076 35.1055 88.2029 35.2102 88.2029 35.3815V35.648C88.2029 35.8192 88.1076 35.9239 87.9266 35.9239H85.6872V42.8137C85.6872 42.985 85.5729 43.0992 85.4013 43.0992H85.0011C84.8296 43.0992 84.7152 42.985 84.7152 42.8137Z" fill="black"/>
<path d="M94.8639 37.713V40.5013C94.8639 42.2618 93.7585 43.2324 91.8908 43.2324C90.023 43.2324 88.9176 42.2618 88.9176 40.5013V37.713C88.9176 35.9525 90.023 34.9818 91.8908 34.9818C93.7585 34.9818 94.8639 35.9525 94.8639 37.713ZM91.8908 42.4426C93.1582 42.4426 93.8633 41.7764 93.8633 40.5583V37.6559C93.8633 36.4378 93.1772 35.7717 91.8908 35.7717C90.6043 35.7717 89.8991 36.4378 89.8991 37.6559V40.5583C89.8991 41.7764 90.5948 42.4426 91.8908 42.4426Z" fill="black"/>
<path d="M101.22 42.966L98.8567 39.9493C98.7233 39.7685 98.647 39.6543 98.647 39.502V39.483C98.647 39.2451 98.809 39.1024 99.0473 39.1024H99.5714C100.62 39.1024 101.163 38.6456 101.163 37.7415V37.2752C101.163 36.3617 100.629 35.9049 99.5714 35.9049H97.7322V42.8137C97.7322 42.985 97.6179 43.0992 97.4463 43.0992H97.0461C96.8746 43.0992 96.7602 42.985 96.7602 42.8137V35.6194C96.7602 35.2959 96.9508 35.1055 97.2748 35.1055H99.5714C101.249 35.1055 102.144 35.8668 102.144 37.3038V37.7225C102.144 39.0357 101.391 39.7495 99.9621 39.8446L102.011 42.376C102.201 42.6139 102.144 42.8898 101.916 43.0611C101.696 43.2229 101.401 43.1753 101.22 42.9469V42.966Z" fill="black"/>
<path d="M103.793 42.6424V35.5623C103.793 35.2768 103.964 35.1055 104.25 35.1055H108.424C108.596 35.1055 108.7 35.2102 108.7 35.3815V35.648C108.7 35.8192 108.596 35.9239 108.424 35.9239H104.765V38.6266H107.767C108.005 38.6266 108.176 38.7788 108.176 39.0072V39.0548C108.176 39.2927 108.005 39.445 107.767 39.445H104.765V42.2998H108.424C108.596 42.2998 108.7 42.4045 108.7 42.5758V42.8423C108.7 43.0136 108.596 43.1182 108.424 43.1182H104.25C103.964 43.1182 103.793 42.9469 103.793 42.6615V42.6424Z" fill="black"/>
</svg>
