<svg width="142" height="35" viewBox="0 0 142 35" fill="none" xmlns="http://www.w3.org/2000/svg">
<path d="M40.5344 18.639V15.5627C40.5344 11.9133 42.94 9.55323 46.556 9.55323C48.0745 9.55323 49.3074 9.98302 50.1644 10.7898V5.30062C50.1644 4.44105 50.7056 3.89062 51.5702 3.89062H52.2016C53.0586 3.89062 53.6074 4.43351 53.6074 5.30062V20.5014L54.8929 21.7908C55.4342 22.3337 55.4943 23.0274 54.9531 23.5703L54.3817 24.1433C53.8405 24.6862 53.1489 24.6334 52.6076 24.083L51.1492 22.6202C50.2621 23.9397 48.7436 24.6334 46.6763 24.6334C42.9776 24.6334 40.5419 22.2734 40.5419 18.624L40.5344 18.639ZM50.1569 18.9557V15.246C50.1569 13.3459 49.0969 12.2827 47.0897 12.2827C45.0825 12.2827 44.0226 13.3459 44.0226 15.246V18.9557C44.0226 20.8558 45.0825 21.919 47.0897 21.919C49.0969 21.919 50.1569 20.8558 50.1569 18.9557Z" fill="white"/>
<path d="M57.4113 19.099V15.2762C57.4113 11.5665 59.644 9.56079 63.8012 9.56079C67.9584 9.56079 70.0784 11.4307 70.0784 15.05V17.116C70.0784 17.9228 69.7025 18.3224 68.9056 18.3224H60.8243V19.4458C60.8243 21.2555 61.8016 22.0321 64.0643 22.0321C65.7558 22.0321 66.6128 21.542 66.6128 20.5693V20.4788C66.6128 20.1622 66.7256 20.0491 67.0714 20.0491H69.4168C69.7025 20.0491 69.8754 20.2225 69.8754 20.509V20.6221C69.8754 23.2988 67.8983 24.6485 64.0268 24.6485C59.6666 24.6485 57.4038 22.7484 57.4038 19.099H57.4113ZM60.8243 14.7031V15.7663H66.7857V14.7031C66.7857 13.0066 65.7257 12.1169 63.7787 12.1169C61.8316 12.1169 60.8243 13.0066 60.8243 14.7031Z" fill="white"/>
<path d="M77.3329 23.329V13.7003L76.0474 12.4109C75.5061 11.868 75.446 11.1744 75.9872 10.6315L76.5586 10.0584C77.0998 9.51553 77.7914 9.56831 78.3327 10.1187L79.964 11.7549C80.6782 10.4882 81.7983 9.77189 83.2341 9.77189H83.5799C84.8955 9.77189 85.5871 10.3148 85.5871 11.3252V11.6117C85.5871 12.5014 84.9557 13.0518 83.9859 13.0518H83.5875C81.7231 13.0518 80.7759 14.0547 80.7759 16.0679V23.3365C80.7759 23.9397 80.3775 24.3393 79.7686 24.3393H78.3402C77.7388 24.3393 77.3329 23.9397 77.3329 23.3365V23.329Z" fill="white"/>
<path d="M86.8198 18.7597V15.4572C86.8198 11.6645 89.1954 9.56836 93.4428 9.56836C97.6902 9.56836 100.088 11.6645 100.088 15.4572V18.7597C100.088 22.5524 97.7127 24.6485 93.4728 24.6485C89.233 24.6485 86.8273 22.5524 86.8273 18.7597H86.8198ZM96.5926 19.099V15.1028C96.5926 13.263 95.5026 12.2828 93.4428 12.2828C91.383 12.2828 90.3155 13.263 90.3155 15.1028V19.099C90.3155 20.9388 91.4055 21.919 93.4653 21.919C95.5251 21.919 96.5851 20.9388 96.5851 19.099H96.5926Z" fill="white"/>
<path d="M103.9 23.329V13.7003L102.614 12.411C102.073 11.8681 102.013 11.1744 102.554 10.6315L103.125 10.0585C103.667 9.51558 104.358 9.56836 104.9 10.1188L106.305 11.5816C107.14 10.262 108.568 9.56836 110.433 9.56836C112.492 9.56836 114.154 10.3148 115.131 11.6947C115.988 10.3148 117.454 9.56836 119.401 9.56836C122.867 9.56836 125.159 11.6117 125.159 15.2611V23.3366C125.159 23.9398 124.761 24.3394 124.16 24.3394H122.724C122.122 24.3394 121.724 23.9398 121.724 23.3366V15.2611C121.724 13.3912 120.777 12.3884 119.003 12.3884C117.228 12.3884 116.251 13.3686 116.251 15.2611V23.3366C116.251 23.9398 115.853 24.3394 115.251 24.3394H113.815C113.214 24.3394 112.816 23.9398 112.816 23.3366V15.2611C112.816 13.3912 111.868 12.3884 110.094 12.3884C108.32 12.3884 107.343 13.3686 107.343 15.2611V23.3366C107.343 23.9398 106.944 24.3394 106.335 24.3394H104.907C104.306 24.3394 103.9 23.9398 103.9 23.3366V23.329Z" fill="white"/>
<path d="M128.009 20.3657V20.132C128.009 17.1687 129.873 15.7889 133.827 15.7889C134.827 15.7889 135.864 15.902 136.864 16.1357V14.0396C136.864 12.803 136.06 12.23 134.316 12.23C132.572 12.23 131.88 12.6597 131.88 13.6927V13.836C131.88 14.2356 131.677 14.4392 131.279 14.4392H129.219C128.82 14.4392 128.587 14.2055 128.587 13.8058V13.6626C128.587 11.0462 130.647 9.55322 134.286 9.55322C138.24 9.55322 140.277 11.1366 140.277 14.2658V20.5014L141.563 21.7908C142.104 22.3337 142.164 23.0274 141.623 23.5703L141.051 24.1433C140.51 24.6862 139.819 24.6334 139.277 24.083L137.841 22.6504C136.894 23.8869 135.323 24.6334 133.429 24.6334C130.016 24.6334 128.016 23.05 128.016 20.3506L128.009 20.3657ZM133.993 22.0321C135.654 22.0321 136.857 21.082 136.857 19.7625V18.443C135.94 18.1866 135.052 18.066 134.105 18.066C132.271 18.066 131.354 18.6994 131.354 19.9661V20.1923C131.354 21.4289 132.241 22.0321 133.993 22.0321Z" fill="white"/>
<path d="M31.2354 0H3.46558C1.54861 0 0 1.55326 0 3.47598V31.3291C0 33.2518 1.54861 34.8051 3.46558 34.8051H31.2354C33.1523 34.8051 34.7009 33.2518 34.7009 31.3291V3.47598C34.7009 1.55326 33.1523 0 31.2354 0ZM25.8979 24.739C27.0556 25.4704 27.439 26.8276 26.6196 28.0793C25.8453 29.2857 24.4997 29.5798 23.2893 28.8031L9.67507 20.1848C8.32191 19.363 7.64533 18.6391 7.64533 17.4251V17.3799C7.64533 16.1207 8.32191 15.4421 9.67507 14.6202L23.2893 6.00945C24.4921 5.23282 25.8453 5.52689 26.6196 6.7333C27.439 7.9925 27.0556 9.34971 25.8979 10.0736L13.9751 17.3874L25.8979 24.739Z" fill="white"/>
<path d="M40.0911 32.5958V32.3243C40.0911 32.2037 40.1512 32.1433 40.264 32.1433H40.6699C40.7676 32.1433 40.8353 32.2037 40.8353 32.3168V32.5882C40.8353 33.3271 41.2864 33.6363 42.2486 33.6363C43.2108 33.6363 43.6619 33.3121 43.6619 32.543V32.362C43.6619 31.6909 43.3462 31.5477 42.7523 31.4421L41.6096 31.231C40.6624 31.0576 40.1512 30.7635 40.1512 29.6702V29.4817C40.1512 28.3356 40.8879 27.7249 42.2636 27.7249C43.6393 27.7249 44.3535 28.2527 44.3535 29.3686V29.5873C44.3535 29.6928 44.3009 29.7682 44.1881 29.7682H43.7822C43.6769 29.7682 43.6093 29.6928 43.6093 29.5873V29.3686C43.6093 28.6447 43.1883 28.3356 42.2561 28.3356C41.3239 28.3356 40.9105 28.6523 40.9105 29.4214V29.6023C40.9105 30.2659 41.2187 30.4091 41.8051 30.5147L42.9628 30.7258C43.9025 30.8992 44.4212 31.2084 44.4212 32.3017V32.4902C44.4212 33.6514 43.6544 34.2546 42.2486 34.2546C40.8428 34.2546 40.0911 33.7268 40.0911 32.6033V32.5958Z" fill="white"/>
<path d="M45.188 33.9454C45.188 33.9002 45.203 33.8398 45.2406 33.7267L47.0523 28.1471C47.1425 27.8756 47.2478 27.7852 47.4884 27.7852H47.9018C48.1349 27.7852 48.2476 27.8756 48.3378 28.1471L50.1496 33.7267C50.1871 33.8323 50.2022 33.9002 50.2022 33.9454C50.2022 34.0736 50.1195 34.1565 49.9616 34.1565H49.7211C49.5406 34.1565 49.488 34.1038 49.4204 33.9002L48.8866 32.2036H46.4885L45.9548 33.9002C45.8946 34.0962 45.827 34.1565 45.6466 34.1565H45.4285C45.2632 34.1565 45.188 34.0736 45.188 33.9454ZM48.6761 31.5477L47.6838 28.4034L46.6915 31.5477H48.6761Z" fill="white"/>
<path d="M51.3074 33.7872V28.0416C51.3074 27.9059 51.3976 27.8154 51.5329 27.8154H51.8486C51.984 27.8154 52.0742 27.9059 52.0742 28.0416V33.5007H54.7955C54.9308 33.5007 55.0135 33.5836 55.0135 33.7193V33.9304C55.0135 34.0662 54.9308 34.1491 54.7955 34.1491H51.6682C51.4427 34.1491 51.3074 34.0134 51.3074 33.7872Z" fill="white"/>
<path d="M56.7047 33.8249L54.893 28.2377C54.8554 28.1397 54.8403 28.0718 54.8403 28.0266C54.8403 27.8984 54.923 27.8154 55.0809 27.8154H55.3215C55.5019 27.8154 55.562 27.8682 55.6297 28.0718L57.3211 33.4705L59.0276 28.0718C59.0877 27.8758 59.1479 27.8154 59.3283 27.8154H59.5538C59.7192 27.8154 59.7869 27.8984 59.7869 28.0266C59.7869 28.0718 59.7794 28.1321 59.7418 28.2377L57.93 33.8249C57.8398 34.0963 57.7346 34.1868 57.4865 34.1868H57.1332C56.9001 34.1868 56.7874 34.0963 56.6972 33.8249H56.7047Z" fill="white"/>
<path d="M59.99 33.9454C59.99 33.9002 60.005 33.8398 60.0426 33.7267L61.8543 28.1471C61.9445 27.8756 62.0498 27.7852 62.2904 27.7852H62.7038C62.9369 27.7852 63.0496 27.8756 63.1398 28.1471L64.9516 33.7267C64.9892 33.8323 65.0042 33.9002 65.0042 33.9454C65.0042 34.0736 64.9215 34.1565 64.7636 34.1565H64.5231C64.3426 34.1565 64.29 34.1038 64.2224 33.9002L63.6886 32.2036H61.2905L60.7568 33.9002C60.6966 34.0962 60.629 34.1565 60.4486 34.1565H60.2306C60.0652 34.1565 59.99 34.0736 59.99 33.9454ZM63.4781 31.5477L62.4858 28.4034L61.4935 31.5477H63.4781Z" fill="white"/>
<path d="M66.8308 33.9229V28.4639H65.0717C64.9289 28.4639 64.8462 28.3809 64.8462 28.2452V28.0341C64.8462 27.8984 64.9289 27.8154 65.0717 27.8154H69.3642C69.5071 27.8154 69.5822 27.8984 69.5822 28.0341V28.2452C69.5822 28.3809 69.5071 28.4639 69.3642 28.4639H67.5976V33.9229C67.5976 34.0586 67.5074 34.1491 67.3721 34.1491H67.0563C66.921 34.1491 66.8308 34.0586 66.8308 33.9229Z" fill="white"/>
<path d="M74.8369 29.8813V32.0905C74.8369 33.4855 73.9649 34.2545 72.4915 34.2545C71.018 34.2545 70.146 33.4855 70.146 32.0905V29.8813C70.146 28.4864 71.018 27.7173 72.4915 27.7173C73.9649 27.7173 74.8369 28.4864 74.8369 29.8813ZM72.4915 33.6287C73.4913 33.6287 74.0476 33.1009 74.0476 32.1358V29.8361C74.0476 28.8709 73.5063 28.3431 72.4915 28.3431C71.4766 28.3431 70.9203 28.8709 70.9203 29.8361V32.1358C70.9203 33.1009 71.4691 33.6287 72.4915 33.6287Z" fill="white"/>
<path d="M79.8512 34.0435L77.9869 31.6533C77.8816 31.5101 77.8215 31.4196 77.8215 31.2989V31.2839C77.8215 31.0954 77.9493 30.9823 78.1372 30.9823H78.5507C79.3776 30.9823 79.8061 30.6203 79.8061 29.904V29.5346C79.8061 28.8107 79.3851 28.4488 78.5507 28.4488H77.0998V33.9229C77.0998 34.0586 77.0096 34.1491 76.8743 34.1491H76.5585C76.4232 34.1491 76.333 34.0586 76.333 33.9229V28.2226C76.333 27.9662 76.4834 27.8154 76.739 27.8154H78.5507C79.8738 27.8154 80.5804 28.4186 80.5804 29.5572V29.889C80.5804 30.9295 79.9865 31.495 78.8589 31.5704L80.4752 33.5761C80.6255 33.7646 80.5804 33.9832 80.4 34.1189C80.2271 34.2471 79.994 34.2094 79.8512 34.0285V34.0435Z" fill="white"/>
<path d="M81.8811 33.7872V28.1774C81.8811 27.9512 82.0164 27.8154 82.2419 27.8154H85.5346C85.6699 27.8154 85.7526 27.8984 85.7526 28.0341V28.2452C85.7526 28.3809 85.6699 28.4639 85.5346 28.4639H82.6479V30.6053H85.0159C85.2039 30.6053 85.3392 30.7259 85.3392 30.9069V30.9446C85.3392 31.1331 85.2039 31.2537 85.0159 31.2537H82.6479V33.5157H85.5346C85.6699 33.5157 85.7526 33.5987 85.7526 33.7344V33.9455C85.7526 34.0812 85.6699 34.1642 85.5346 34.1642H82.2419C82.0164 34.1642 81.8811 34.0285 81.8811 33.8023V33.7872Z" fill="white"/>
</svg>
